<svg xmlns="http://www.w3.org/2000/svg" xmlns:xlink="http://www.w3.org/1999/xlink" width="500" zoomAndPan="magnify" viewBox="0 0 375 374.999991" height="500" preserveAspectRatio="xMidYMid meet" version="1.0"><defs><g/><clipPath id="9d4d18ef57"><path d="M 83.050781 163.84375 L 129.464844 163.84375 L 129.464844 210.261719 L 83.050781 210.261719 Z M 83.050781 163.84375 " clip-rule="nonzero"/></clipPath><clipPath id="f7df6863ad"><path d="M 89.355469 169.84375 L 123.160156 169.84375 L 123.160156 204.265625 L 89.355469 204.265625 Z M 89.355469 169.84375 " clip-rule="nonzero"/></clipPath><clipPath id="d594f0a027"><path d="M 110.839844 190.914062 L 123.160156 190.914062 L 123.160156 210.261719 L 110.839844 210.261719 Z M 110.839844 190.914062 " clip-rule="nonzero"/></clipPath><clipPath id="787c132208"><path d="M 110.839844 200.605469 L 123.160156 190.945312 L 123.160156 210.261719 Z M 110.839844 200.605469 " clip-rule="nonzero"/></clipPath><clipPath id="007d145d24"><path d="M 82.96875 163.652344 L 89.355469 163.652344 L 89.355469 169.726562 L 82.96875 169.726562 Z M 82.96875 163.652344 " clip-rule="nonzero"/></clipPath><clipPath id="7c711c3ad7"><path d="M 123.160156 204.265625 L 129.65625 204.265625 L 129.65625 210.453125 L 123.160156 210.453125 Z M 123.160156 204.265625 " clip-rule="nonzero"/></clipPath></defs><rect x="-37.5" width="450" fill="#ffffff" y="-37.499999" height="449.999989" fill-opacity="1"/><rect x="-37.5" width="450" fill="#171717" y="-37.499999" height="449.999989" fill-opacity="1"/><g clip-path="url(#9d4d18ef57)"><path fill="#ff8200" d="M 83.050781 163.84375 L 129.464844 163.84375 L 129.464844 210.261719 L 83.050781 210.261719 Z M 83.050781 163.84375 " fill-opacity="1" fill-rule="nonzero"/></g><g clip-path="url(#f7df6863ad)"><path fill="#000000" d="M 89.355469 169.84375 L 123.160156 169.84375 L 123.160156 204.308594 L 89.355469 204.308594 Z M 89.355469 169.84375 " fill-opacity="1" fill-rule="nonzero"/></g><g clip-path="url(#d594f0a027)"><g clip-path="url(#787c132208)"><path fill="#171717" d="M 110.839844 210.261719 L 110.839844 190.960938 L 123.160156 190.960938 L 123.160156 210.261719 Z M 110.839844 210.261719 " fill-opacity="1" fill-rule="nonzero"/></g></g><g clip-path="url(#007d145d24)"><path fill="#000000" d="M 89.355469 163.65625 L 82.855469 169.835938 L 82.855469 163.65625 Z M 89.355469 163.65625 " fill-opacity="1" fill-rule="nonzero"/></g><g clip-path="url(#7c711c3ad7)"><path fill="#000000" d="M 123.160156 210.449219 L 129.65625 204.273438 L 129.65625 210.449219 Z M 123.160156 210.449219 " fill-opacity="1" fill-rule="nonzero"/></g><g fill="#ffffff" fill-opacity="1"><g transform="translate(137.205655, 200.766227)"><g><path d="M 3.984375 0 C 3.398438 0 2.929688 -0.140625 2.578125 -0.421875 C 2.222656 -0.703125 2.046875 -1.148438 2.046875 -1.765625 L 2.046875 -3.546875 C 2.046875 -4.160156 2.222656 -4.613281 2.578125 -4.90625 C 2.929688 -5.207031 3.398438 -5.359375 3.984375 -5.359375 L 4.59375 -5.359375 L 4.59375 -22.84375 L 3.984375 -22.84375 C 3.398438 -22.84375 2.929688 -22.988281 2.578125 -23.28125 C 2.222656 -23.570312 2.046875 -24.03125 2.046875 -24.65625 L 2.046875 -26.421875 C 2.046875 -27.035156 2.222656 -27.484375 2.578125 -27.765625 C 2.929688 -28.054688 3.398438 -28.203125 3.984375 -28.203125 L 11.640625 -28.203125 C 12.203125 -28.203125 12.65625 -28.054688 13 -27.765625 C 13.351562 -27.484375 13.53125 -27.035156 13.53125 -26.421875 L 13.53125 -24.65625 C 13.53125 -24.03125 13.351562 -23.570312 13 -23.28125 C 12.65625 -22.988281 12.203125 -22.84375 11.640625 -22.84375 L 11.03125 -22.84375 L 11.03125 -5.359375 L 11.640625 -5.359375 C 12.203125 -5.359375 12.65625 -5.207031 13 -4.90625 C 13.351562 -4.613281 13.53125 -4.160156 13.53125 -3.546875 L 13.53125 -1.765625 C 13.53125 -1.148438 13.351562 -0.703125 13 -0.421875 C 12.65625 -0.140625 12.203125 0 11.640625 0 Z M 3.984375 0 "/></g></g></g><g fill="#ffffff" fill-opacity="1"><g transform="translate(149.247802, 200.766227)"><g><path d="M 23.96875 -5.359375 C 24.53125 -5.359375 24.984375 -5.207031 25.328125 -4.90625 C 25.679688 -4.613281 25.859375 -4.160156 25.859375 -3.546875 L 25.859375 -1.765625 C 25.859375 -1.148438 25.679688 -0.703125 25.328125 -0.421875 C 24.984375 -0.140625 24.53125 0 23.96875 0 L 16.71875 0 C 16.125 0 15.648438 -0.140625 15.296875 -0.421875 C 14.953125 -0.703125 14.78125 -1.148438 14.78125 -1.765625 L 14.78125 -3.546875 C 14.78125 -4.160156 14.953125 -4.613281 15.296875 -4.90625 C 15.648438 -5.207031 16.125 -5.359375 16.71875 -5.359375 L 17 -5.359375 L 17 -10.640625 C 17 -12.378906 16.816406 -13.59375 16.453125 -14.28125 C 16.085938 -14.96875 15.4375 -15.3125 14.5 -15.3125 C 13.457031 -15.3125 12.546875 -14.847656 11.765625 -13.921875 C 10.984375 -12.992188 10.59375 -11.910156 10.59375 -10.671875 L 10.59375 -5.359375 L 10.875 -5.359375 C 11.4375 -5.359375 11.890625 -5.207031 12.234375 -4.90625 C 12.585938 -4.613281 12.765625 -4.160156 12.765625 -3.546875 L 12.765625 -1.765625 C 12.765625 -1.148438 12.585938 -0.703125 12.234375 -0.421875 C 11.890625 -0.140625 11.4375 0 10.875 0 L 3.625 0 C 3.0625 0 2.601562 -0.140625 2.25 -0.421875 C 1.90625 -0.703125 1.734375 -1.148438 1.734375 -1.765625 L 1.734375 -3.546875 C 1.734375 -4.160156 1.90625 -4.613281 2.25 -4.90625 C 2.601562 -5.207031 3.0625 -5.359375 3.625 -5.359375 L 4.234375 -5.359375 L 4.234375 -14.78125 L 3.625 -14.78125 C 3.0625 -14.78125 2.601562 -14.925781 2.25 -15.21875 C 1.90625 -15.519531 1.734375 -15.976562 1.734375 -16.59375 L 1.734375 -18.375 C 1.734375 -18.988281 1.90625 -19.4375 2.25 -19.71875 C 2.601562 -20 3.0625 -20.140625 3.625 -20.140625 L 8.625 -20.140625 C 9.1875 -20.140625 9.65625 -19.953125 10.03125 -19.578125 C 10.40625 -19.203125 10.59375 -18.71875 10.59375 -18.125 L 10.59375 -16.3125 C 11.101562 -17.550781 11.898438 -18.566406 12.984375 -19.359375 C 14.078125 -20.148438 15.210938 -20.546875 16.390625 -20.546875 C 18.597656 -20.546875 20.3125 -19.847656 21.53125 -18.453125 C 22.75 -17.054688 23.359375 -15.09375 23.359375 -12.5625 L 23.359375 -5.359375 Z M 23.96875 -5.359375 "/></g></g></g><g fill="#ffffff" fill-opacity="1"><g transform="translate(172.487042, 200.766227)"><g><path d="M 11.59375 -12.765625 C 13.394531 -12.253906 14.804688 -11.707031 15.828125 -11.125 C 16.847656 -10.550781 17.585938 -9.867188 18.046875 -9.078125 C 18.503906 -8.285156 18.734375 -7.3125 18.734375 -6.15625 C 18.734375 -4.894531 18.363281 -3.757812 17.625 -2.75 C 16.882812 -1.75 15.851562 -0.972656 14.53125 -0.421875 C 13.21875 0.128906 11.734375 0.40625 10.078125 0.40625 C 7.460938 0.40625 5.394531 0.00390625 3.875 -0.796875 C 2.363281 -1.609375 1.609375 -2.6875 1.609375 -4.03125 C 1.609375 -4.9375 1.914062 -5.675781 2.53125 -6.25 C 3.15625 -6.832031 3.960938 -7.125 4.953125 -7.125 C 5.890625 -7.125 6.679688 -6.804688 7.328125 -6.171875 C 7.972656 -5.546875 8.296875 -4.765625 8.296875 -3.828125 C 8.671875 -3.640625 9.207031 -3.546875 9.90625 -3.546875 C 10.6875 -3.546875 11.289062 -3.675781 11.71875 -3.9375 C 12.144531 -4.207031 12.359375 -4.597656 12.359375 -5.109375 C 12.359375 -5.648438 12.191406 -6.054688 11.859375 -6.328125 C 11.523438 -6.597656 10.847656 -6.878906 9.828125 -7.171875 C 7.867188 -7.734375 6.316406 -8.320312 5.171875 -8.9375 C 4.035156 -9.5625 3.210938 -10.285156 2.703125 -11.109375 C 2.191406 -11.941406 1.9375 -12.953125 1.9375 -14.140625 C 1.9375 -15.398438 2.296875 -16.519531 3.015625 -17.5 C 3.742188 -18.476562 4.765625 -19.226562 6.078125 -19.75 C 7.398438 -20.28125 8.90625 -20.546875 10.59375 -20.546875 C 12.976562 -20.546875 14.890625 -20.15625 16.328125 -19.375 C 17.765625 -18.59375 18.484375 -17.5625 18.484375 -16.28125 C 18.484375 -15.332031 18.175781 -14.566406 17.5625 -13.984375 C 16.945312 -13.410156 16.140625 -13.125 15.140625 -13.125 C 14.234375 -13.125 13.460938 -13.425781 12.828125 -14.03125 C 12.203125 -14.632812 11.859375 -15.394531 11.796875 -16.3125 C 11.453125 -16.5 11.007812 -16.59375 10.46875 -16.59375 C 9.800781 -16.59375 9.28125 -16.441406 8.90625 -16.140625 C 8.53125 -15.847656 8.34375 -15.445312 8.34375 -14.9375 C 8.34375 -14.457031 8.5625 -14.066406 9 -13.765625 C 9.445312 -13.472656 10.3125 -13.140625 11.59375 -12.765625 Z M 11.59375 -12.765625 "/></g></g></g><g fill="#ffffff" fill-opacity="1"><g transform="translate(189.362472, 200.766227)"><g><path d="M 22.921875 -5.359375 C 23.515625 -5.359375 23.984375 -5.207031 24.328125 -4.90625 C 24.679688 -4.613281 24.859375 -4.160156 24.859375 -3.546875 L 24.859375 -1.765625 C 24.859375 -1.148438 24.679688 -0.703125 24.328125 -0.421875 C 23.984375 -0.140625 23.515625 0 22.921875 0 L 17.96875 0 C 17.375 0 16.890625 -0.1875 16.515625 -0.5625 C 16.140625 -0.9375 15.953125 -1.421875 15.953125 -2.015625 L 15.953125 -3.828125 C 15.410156 -2.566406 14.625 -1.546875 13.59375 -0.765625 C 12.5625 0.015625 11.46875 0.40625 10.3125 0.40625 C 8.132812 0.40625 6.445312 -0.289062 5.25 -1.6875 C 4.0625 -3.082031 3.46875 -5.046875 3.46875 -7.578125 L 3.46875 -14.78125 L 2.8125 -14.78125 C 2.25 -14.78125 1.789062 -14.925781 1.4375 -15.21875 C 1.09375 -15.519531 0.921875 -15.976562 0.921875 -16.59375 L 0.921875 -18.375 C 0.921875 -18.988281 1.09375 -19.4375 1.4375 -19.71875 C 1.789062 -20 2.25 -20.140625 2.8125 -20.140625 L 7.8125 -20.140625 C 8.375 -20.140625 8.847656 -19.953125 9.234375 -19.578125 C 9.628906 -19.203125 9.828125 -18.71875 9.828125 -18.125 L 9.828125 -9.5 C 9.828125 -7.726562 9.992188 -6.503906 10.328125 -5.828125 C 10.660156 -5.160156 11.273438 -4.828125 12.171875 -4.828125 C 13.210938 -4.828125 14.101562 -5.285156 14.84375 -6.203125 C 15.582031 -7.117188 15.953125 -8.207031 15.953125 -9.46875 L 15.953125 -14.78125 L 15.34375 -14.78125 C 14.757812 -14.78125 14.289062 -14.925781 13.9375 -15.21875 C 13.582031 -15.519531 13.40625 -15.976562 13.40625 -16.59375 L 13.40625 -18.375 C 13.40625 -18.988281 13.582031 -19.4375 13.9375 -19.71875 C 14.289062 -20 14.757812 -20.140625 15.34375 -20.140625 L 20.34375 -20.140625 C 20.90625 -20.140625 21.375 -19.953125 21.75 -19.578125 C 22.125 -19.203125 22.3125 -18.71875 22.3125 -18.125 L 22.3125 -5.359375 Z M 22.921875 -5.359375 "/></g></g></g><g fill="#ffffff" fill-opacity="1"><g transform="translate(211.675337, 200.766227)"><g><path d="M 16.3125 -20.546875 C 17.6875 -20.546875 18.734375 -20.160156 19.453125 -19.390625 C 20.179688 -18.628906 20.546875 -17.617188 20.546875 -16.359375 C 20.546875 -15.203125 20.1875 -14.253906 19.46875 -13.515625 C 18.757812 -12.773438 17.816406 -12.40625 16.640625 -12.40625 C 15.804688 -12.40625 15.085938 -12.644531 14.484375 -13.125 C 13.878906 -13.613281 13.46875 -14.257812 13.25 -15.0625 C 12.46875 -14.769531 11.828125 -14.195312 11.328125 -13.34375 C 10.835938 -12.5 10.59375 -11.582031 10.59375 -10.59375 L 10.59375 -5.359375 L 11.921875 -5.359375 C 12.484375 -5.359375 12.9375 -5.207031 13.28125 -4.90625 C 13.632812 -4.613281 13.8125 -4.160156 13.8125 -3.546875 L 13.8125 -1.765625 C 13.8125 -1.148438 13.632812 -0.703125 13.28125 -0.421875 C 12.9375 -0.140625 12.484375 0 11.921875 0 L 3.625 0 C 3.0625 0 2.601562 -0.140625 2.25 -0.421875 C 1.90625 -0.703125 1.734375 -1.148438 1.734375 -1.765625 L 1.734375 -3.546875 C 1.734375 -4.160156 1.90625 -4.613281 2.25 -4.90625 C 2.601562 -5.207031 3.0625 -5.359375 3.625 -5.359375 L 4.234375 -5.359375 L 4.234375 -14.78125 L 3.625 -14.78125 C 3.0625 -14.78125 2.601562 -14.925781 2.25 -15.21875 C 1.90625 -15.519531 1.734375 -15.976562 1.734375 -16.59375 L 1.734375 -18.375 C 1.734375 -18.988281 1.90625 -19.4375 2.25 -19.71875 C 2.601562 -20 3.0625 -20.140625 3.625 -20.140625 L 8.625 -20.140625 C 9.1875 -20.140625 9.65625 -19.953125 10.03125 -19.578125 C 10.40625 -19.203125 10.59375 -18.71875 10.59375 -18.125 L 10.59375 -15.671875 C 11.050781 -17.148438 11.8125 -18.332031 12.875 -19.21875 C 13.9375 -20.101562 15.082031 -20.546875 16.3125 -20.546875 Z M 16.3125 -20.546875 "/></g></g></g><g fill="#ff8200" fill-opacity="1"><g transform="translate(229.479087, 200.766227)"><g><path d="M 27.265625 -5.359375 C 27.828125 -5.359375 28.289062 -5.207031 28.65625 -4.90625 C 29.019531 -4.613281 29.203125 -4.160156 29.203125 -3.546875 L 29.203125 -1.765625 C 29.203125 -1.148438 29.019531 -0.703125 28.65625 -0.421875 C 28.289062 -0.140625 27.828125 0 27.265625 0 L 17.96875 0 C 17.40625 0 16.941406 -0.140625 16.578125 -0.421875 C 16.210938 -0.703125 16.03125 -1.148438 16.03125 -1.765625 L 16.03125 -3.546875 C 16.03125 -4.160156 16.210938 -4.613281 16.578125 -4.90625 C 16.941406 -5.207031 17.40625 -5.359375 17.96875 -5.359375 L 18.9375 -5.359375 L 14.9375 -10.71875 L 10.875 -5.359375 L 11.5625 -5.359375 C 12.125 -5.359375 12.578125 -5.207031 12.921875 -4.90625 C 13.273438 -4.613281 13.453125 -4.160156 13.453125 -3.546875 L 13.453125 -1.765625 C 13.453125 -1.148438 13.273438 -0.703125 12.921875 -0.421875 C 12.578125 -0.140625 12.125 0 11.5625 0 L 3.671875 0 C 3.097656 0 2.632812 -0.140625 2.28125 -0.421875 C 1.9375 -0.703125 1.765625 -1.148438 1.765625 -1.765625 L 1.765625 -3.546875 C 1.765625 -4.160156 1.9375 -4.613281 2.28125 -4.90625 C 2.632812 -5.207031 3.097656 -5.359375 3.671875 -5.359375 L 4.265625 -5.359375 L 11.03125 -13.890625 L 4.3125 -22.84375 L 3.828125 -22.84375 C 3.234375 -22.84375 2.757812 -22.988281 2.40625 -23.28125 C 2.0625 -23.570312 1.890625 -24.03125 1.890625 -24.65625 L 1.890625 -26.421875 C 1.890625 -27.035156 2.0625 -27.484375 2.40625 -27.765625 C 2.757812 -28.054688 3.234375 -28.203125 3.828125 -28.203125 L 13.125 -28.203125 C 13.695312 -28.203125 14.15625 -28.054688 14.5 -27.765625 C 14.851562 -27.484375 15.03125 -27.035156 15.03125 -26.421875 L 15.03125 -24.65625 C 15.03125 -24.03125 14.851562 -23.570312 14.5 -23.28125 C 14.15625 -22.988281 13.695312 -22.84375 13.125 -22.84375 L 12.078125 -22.84375 L 15.828125 -17.765625 L 19.703125 -22.84375 L 19.015625 -22.84375 C 18.453125 -22.84375 17.988281 -22.988281 17.625 -23.28125 C 17.257812 -23.570312 17.078125 -24.03125 17.078125 -24.65625 L 17.078125 -26.421875 C 17.078125 -27.035156 17.257812 -27.484375 17.625 -27.765625 C 17.988281 -28.054688 18.453125 -28.203125 19.015625 -28.203125 L 26.90625 -28.203125 C 27.5 -28.203125 27.96875 -28.054688 28.3125 -27.765625 C 28.664062 -27.484375 28.84375 -27.035156 28.84375 -26.421875 L 28.84375 -24.65625 C 28.84375 -24.03125 28.664062 -23.570312 28.3125 -23.28125 C 27.96875 -22.988281 27.5 -22.84375 26.90625 -22.84375 L 26.265625 -22.84375 L 19.78125 -14.578125 L 26.703125 -5.359375 Z M 27.265625 -5.359375 "/></g></g></g></svg>